Coordinates
version=1
nRows=10
nColumns=63
inDegrees=yes

Units are S.I. units (second, meters, Newtons, ...)
If the header above contains a line with 'inDegrees', this indicates whether rotational values are in degrees (yes) or radians (no).

endheader
time	pelvis_tilt	pelvis_list	pelvis_rotation	pelvis_tx	pelvis_ty	pelvis_tz	hip_flexion_r	hip_adduction_r	hip_rotation_r	knee_angle_r	knee_angle_r_beta	ankle_angle_r	subtalar_angle_r	mtp_angle_r	hip_flexion_l	hip_adduction_l	hip_rotation_l	knee_angle_l	knee_angle_l_beta	ankle_angle_l	subtalar_angle_l	mtp_angle_l	L5_S1_Flex_Ext	L5_S1_Lat_Bending	L5_S1_axial_rotation	L4_L5_Flex_Ext	L4_L5_Lat_Bending	L4_L5_axial_rotation	L3_L4_Flex_Ext	L3_L4_Lat_Bending	L3_L4_axial_rotation	L2_L3_Flex_Ext	L2_L3_Lat_Bending	L2_L3_axial_rotation	L1_L2_Flex_Ext	L1_L2_Lat_Bending	L1_L2_axial_rotation	L1_T12_Flex_Ext	L1_T12_Lat_Bending	L1_T12_axial_rotation	Abs_r3	Abs_r2	Abs_r1	Abs_t1	Abs_t2	neck_flexion	neck_bending	neck_rotation	arm_flex_r	arm_add_r	arm_rot_r	elbow_flex_r	pro_sup_r	wrist_flex_r	wrist_dev_r	arm_flex_l	arm_add_l	arm_rot_l	elbow_flex_l	pro_sup_l	wrist_flex_l	wrist_dev_l
      0.00000000	     -0.66464817	     -4.08813719	     99.40482322	      0.24214579	      0.87994805	      0.69121819	      3.84264877	     -0.62337544	     -5.16553975	      6.61328276	      0.11542356	     26.04270593	     -8.55132343	      0.00000000	      3.05202790	     -0.27271084	     23.39371317	      0.52753590	      0.00920724	     27.57858336	    -11.13431809	      0.00000000	      0.22222399	     -0.03020814	     -1.26626063	      0.41269216	     -0.04017683	     -1.34540192	      0.36509179	     -0.07344807	     -1.34540192	      0.25397979	     -0.07344807	     -1.10797805	      0.20635719	     -0.06160044	     -1.02883676	      0.12697879	     -0.04679241	     -0.94969547	      1.58732371	     -0.34172051	     -7.04256176	      0.00000000	      0.00000000	     25.44079845	      5.41509778	     13.95550389	      6.06923038	    -10.67752675	     23.38985141	     88.53077025	     79.58849311	     -6.43923296	     -5.53699024	      4.73255362	    -20.36817299	     25.38640219	     94.13986716	     68.15894911	     -1.94279641	      0.91924697
      0.01694915	      0.04292662	     -3.79822096	     99.27840274	      0.24211341	      0.88107833	      0.68933507	      3.60590974	      0.22287436	     -4.82477838	      5.90027969	      0.10297931	     26.35181632	     -9.34882618	      0.00000000	      2.58315550	     -1.09031566	     23.35281401	      0.40807094	      0.00712218	     27.29782778	    -11.74764753	      0.00000000	      0.20236693	      0.05444416	     -1.34741890	      0.37581562	      0.07241073	     -1.43163258	      0.33246863	      0.13237552	     -1.43163258	      0.23128516	      0.13237552	     -1.17899154	      0.18791793	      0.11102252	     -1.09477786	      0.11563246	      0.08433400	     -1.01056418	      1.44548674	      0.61588319	     -7.49393971	      0.00000000	      0.00000000	     25.25623763	      5.12278156	     14.16463920	      6.33423441	    -11.80159581	     25.31682139	     87.97646294	     81.98440595	     -5.19180359	     -5.62924763	      3.92246399	    -19.73305479	     23.61100257	     93.91905325	     69.32388245	      1.17026155	      2.11982011
      0.03389831	      0.33367498	     -3.68776610	     99.36375088	      0.24209587	      0.88178066	      0.68795641	      3.48636065	      0.62297071	     -3.95434686	      5.40724912	      0.09437430	     26.34990370	    -11.00034386	      0.00000000	      2.40232638	     -1.42399482	     22.64098484	      0.41676484	      0.00727392	     27.42633950	    -11.05254777	      0.00000000	      0.21302637	      0.07848574	     -1.36731363	      0.39561127	      0.10438604	     -1.45277074	      0.34998102	      0.19083023	     -1.45277074	      0.24346784	      0.19083023	     -1.19639943	      0.19781629	      0.16004812	     -1.11094233	      0.12172327	      0.12157441	     -1.02548523	      1.52162605	      0.88784640	     -7.60458824	      0.00000000	      0.00000000	     24.95517582	      5.47983685	     14.16086959	      6.31167510	    -12.66200272	     26.42625382	     87.76997721	     82.79310510	     -3.76686307	     -5.24210217	      3.70182616	    -18.91930421	     21.61170420	     93.01015751	     71.60029255	      8.52664551	      4.36451891
      0.05084746	      0.53002575	     -3.50415956	     99.47137406	      0.24193202	      0.88240224	      0.68697876	      3.29053339	      0.87332922	     -4.03013237	      5.13258444	      0.08958050	     26.39489099	    -11.29918670	      0.00000000	      2.19319965	     -1.65202724	     22.45365869	      0.40794400	      0.00711997	     27.44062299	    -11.17330548	      0.00000000	      0.21503012	      0.09339396	     -1.34410199	      0.39933243	      0.12421397	     -1.42810836	      0.35327298	      0.22707808	     -1.42810836	      0.24575792	      0.22707808	     -1.17608924	      0.19967697	      0.19044897	     -1.09208287	      0.12286821	      0.14466725	     -1.00807649	      1.53593862	      1.05649117	     -7.47549203	      0.00000000	      0.00000000	     24.79769795	      5.68634968	     13.70076028	      6.34907647	    -13.57594008	     27.40291930	     87.70568577	     82.90672281	     -3.27114878	     -5.17300631	      3.91047749	    -18.83960908	     21.99341745	     92.57904641	     71.62606187	      8.78281079	      4.61765267
      0.06779661	      0.68921381	     -3.23553307	     99.62580580	      0.24164381	      0.88292387	      0.68632807	      2.96197166	      1.10564652	     -4.09108946	      4.91589169	      0.08579850	     26.17438692	    -11.74244034	      0.00000000	      1.94119775	     -1.84619030	     22.29299007	      0.39375798	      0.00687237	     27.58095495	    -11.19482673	      0.00000000	      0.20277978	      0.10587150	     -1.30384968	      0.37658233	      0.14080910	     -1.38534029	      0.33314691	      0.25741597	     -1.38534029	      0.23175701	      0.25741597	     -1.14086847	      0.18830131	      0.21589317	     -1.05937787	      0.11586837	      0.16399496	     -0.97788726	      1.44843571	      1.19763962	     -7.25162078	      0.00000000	      0.00000000	     24.80118558	      5.81333706	     12.98204965	      6.39623220	    -14.37932552	     27.99915547	     87.70275676	     82.64698773	     -2.68313876	     -5.19589510	      4.24791258	    -18.64182195	     22.49261106	     92.03802464	     71.55034609	      9.19244542	      4.91233350
      0.08474576	      0.73161983	     -2.97401171	     99.84780843	      0.24143646	      0.88326727	      0.68576371	      2.57185629	      1.24684168	     -3.55655149	      4.72470083	      0.08246159	     25.60378238	    -13.11519451	      0.00000000	      1.70412765	     -1.93128263	     22.02143870	      0.38336283	      0.00669094	     27.85251482	    -10.85695886	      0.00000000	      0.19386804	      0.09875026	     -1.19271910	      0.36003233	      0.13133785	     -1.26726404	      0.31850580	      0.24010139	     -1.26726404	      0.22157178	      0.24010139	     -1.04362921	      0.18002586	      0.20137153	     -0.96908427	      0.11077620	      0.15296415	     -0.89453933	      1.38478001	      1.11708271	     -6.63354582	      0.00000000	      0.00000000	     25.01222340	      5.35011728	     11.15614017	      5.93672656	    -14.88516977	     27.66640223	     87.78530389	     80.94835435	     -1.44775921	     -5.58496921	      5.04603634	    -18.53733096	     23.61536077	     91.21162688	     70.87473037	     10.21191779	      5.23565562
      0.10169492	      0.69212049	     -2.88827176	     99.93859317	      0.24156523	      0.88325705	      0.68506905	      2.41080082	      1.23226035	     -3.60788320	      4.80507345	      0.08386435	     25.42609343	    -13.15504726	      0.00000000	      1.59952835	     -1.91597330	     21.96370566	      0.38063644	      0.00664336	     27.93326620	    -10.90059687	      0.00000000	      0.20916737	      0.09101664	     -1.18186322	      0.38844473	      0.12105213	     -1.25572967	      0.34364107	      0.22129786	     -1.25572967	      0.23905739	      0.22129786	     -1.03413032	      0.19423282	      0.18560113	     -0.96026387	      0.11951824	      0.14098478	     -0.88639742	      1.49406162	      1.02959844	     -6.57316868	      0.00000000	      0.00000000	     25.11712524	      5.41110546	     11.13546928	      5.81010803	    -15.02866179	     27.85050285	     87.75601716	     80.96110593	     -1.38165433	     -5.58258061	      4.90143406	    -18.50636951	     23.82431451	     91.08910868	     70.89592943	     10.23048206	      5.27882692
      0.11864407	      0.65078781	     -2.63411146	    100.05751676	      0.24101516	      0.88338894	      0.68513018	      2.19486814	      1.16254747	     -4.80012165	      5.08934377	      0.08882581	     25.16416764	    -12.32104960	      0.00000000	      1.46119151	     -1.86062100	     20.39896251	      0.66235456	      0.01156027	     28.60434056	     -8.52919979	      0.00000000	      0.19138231	      0.08228233	     -1.09379508	      0.35541609	      0.10943549	     -1.16215728	      0.31442200	      0.20006125	     -1.16215728	      0.21873084	      0.20006125	     -0.95707070	      0.17771761	      0.16779012	     -0.88870851	      0.10935585	      0.12745532	     -0.82034631	      1.36702470	      0.93079414	     -6.08336012	      0.00000000	      0.00000000	     24.84203900	      5.72837812	     10.06541617	      5.86980985	    -15.82763251	     28.15577931	     87.84995646	     78.84369995	     -0.58849568	     -6.06629861	      5.73876396	    -18.69073814	     25.22822271	     90.58029182	     70.15937545	     10.32357783	      5.43944321
      0.13559322	      0.58474469	     -2.56347492	    100.18459882	      0.24096730	      0.88311243	      0.68452442	      1.81003392	      1.22814692	     -2.60464437	      4.66678407	      0.08145075	     23.76402845	    -15.87206569	      0.00000000	      1.19405864	     -1.85072898	     22.07625381	      0.37713586	      0.00658226	     27.96960918	    -10.53616074	      0.00000000	      0.18687274	      0.06721797	     -1.05965747	      0.34704136	      0.08939990	     -1.12588606	      0.30701322	      0.16343377	     -1.12588606	      0.21357685	      0.16343377	     -0.92720029	      0.17353002	      0.13707088	     -0.86097169	      0.10677908	      0.10412063	     -0.79474310	      1.33481326	      0.76038310	     -5.89349695	      0.00000000	      0.00000000	     25.53658512	      5.58079770	      9.34034676	      5.67545228	    -15.94853282	     27.92302254	     87.74866273	     80.36027266	     -0.02271369	     -7.35336229	      5.84357190	    -18.78910907	     25.58162452	     90.61254129	     70.94156028	     11.07679719	      5.64323520
      0.15254237	      0.56637030	     -2.53965119	    100.20249001	      0.24079428	      0.88287738	      0.68411038	      1.70988083	      1.19454344	     -2.61375032	      4.70685834	      0.08215018	     23.68172039	    -15.86008235	      0.00000000	      1.09302044	     -1.84182023	     22.20293408	      0.37688953	      0.00657796	     27.83288284	    -10.45279210	      0.00000000	      0.18999065	      0.06507938	     -1.05043392	      0.35283163	      0.08655558	     -1.11608604	      0.31213563	      0.15823401	     -1.11608604	      0.21714031	      0.15823401	     -0.91912968	      0.17642531	      0.13270988	     -0.85347756	      0.10856066	      0.10080797	     -0.78782544	      1.35708419	      0.73619100	     -5.84219835	      0.00000000	      0.00000000	     25.53960000	      5.54103419	      9.35777939	      5.66354180	    -16.08507794	     28.02097261	     87.77378329	     80.41988552	      0.02846414	     -7.39434139	      5.70602470	    -18.88304959	     25.79971745	     90.80710426	     70.98571725	     11.22695263	      5.72984672
